<?xml version="1.0" encoding="utf-8"?>
<!-- Generator: Adobe Illustrator 21.0.2, SVG Export Plug-In . SVG Version: 6.00 Build 0)  -->
<svg version="1.1" id="Capa_1" xmlns="http://www.w3.org/2000/svg" xmlns:xlink="http://www.w3.org/1999/xlink" x="0px" y="0px"
	 viewBox="0 0 58 58" style="enable-background:new 0 0 58 58;" xml:space="preserve">
<g>
	<path d="M21,14h-5V9c0-0.6-0.4-1-1-1s-1,0.4-1,1v5H9c-0.6,0-1,0.4-1,1s0.4,1,1,1h5v5c0,0.6,0.4,1,1,1s1-0.4,1-1v-5h5
		c0.6,0,1-0.4,1-1S21.6,14,21,14z"/>
	<path d="M49,14H37c-0.6,0-1,0.4-1,1s0.4,1,1,1h12c0.6,0,1-0.4,1-1S49.6,14,49,14z"/>
	<path d="M30,0h-2H0v28v2v28h28h2h28V30v-2V0H30z M2,2h26v26H2V2z M2,56V30h26v26H2z M56,56H30V30h26V56z M30,28V2h26v26H30z"/>
	<path d="M37,47h12c0.6,0,1-0.4,1-1s-0.4-1-1-1H37c-0.6,0-1,0.4-1,1S36.4,47,37,47z"/>
	<path d="M37,41h12c0.6,0,1-0.4,1-1s-0.4-1-1-1H37c-0.6,0-1,0.4-1,1S36.4,41,37,41z"/>
	<path d="M20.7,37.3c-0.4-0.4-1-0.4-1.4,0L15,41.6l-4.3-4.3c-0.4-0.4-1-0.4-1.4,0s-0.4,1,0,1.4l4.3,4.3l-4.3,4.3
		c-0.4,0.4-0.4,1,0,1.4C9.5,48.9,9.7,49,10,49s0.5-0.1,0.7-0.3l4.3-4.3l4.3,4.3c0.2,0.2,0.5,0.3,0.7,0.3s0.5-0.1,0.7-0.3
		c0.4-0.4,0.4-1,0-1.4L16.4,43l4.3-4.3C21.1,38.3,21.1,37.7,20.7,37.3z"/>
</g>
</svg>
