<?xml version="1.0" encoding="utf-8"?>
<!-- Generator: Adobe Illustrator 21.0.2, SVG Export Plug-In . SVG Version: 6.00 Build 0)  -->
<svg version="1.1" id="Layer_1" xmlns="http://www.w3.org/2000/svg" xmlns:xlink="http://www.w3.org/1999/xlink" x="0px" y="0px"
	 viewBox="0 0 504.5 504.5" style="enable-background:new 0 0 504.5 504.5;" xml:space="preserve">
<style type="text/css">
	.st0{fill:#2B414D;}
	.st1{fill:#475F6C;}
	.st2{fill:#EFC75E;}
	.st3{fill:#D7B354;}
</style>
<g>
	<path class="st0" d="M308.6,161.5l-152,68.9l122.9,271l66.2-55.9l85.5-12.6L308.6,161.5z"/>
	<path class="st1" d="M195.9,164.2l152,68.9L225.1,504.5l-66.2-56.3L73,435.6C73,435.6,195.9,164.2,195.9,164.2z"/>
	<path class="st2" d="M449.2,197.3c0,14.6-20.9,26.8-24,40.6c-3.2,14.2,10.6,34.3,4.7,47.3c-6.3,13-30.3,14.6-39,25.6
		s-4.7,35.4-15.8,44.5s-33.1-0.4-45.7,5.9s-19.3,29.9-33.1,33.1c-13.4,3.2-29.5-15-43.7-15c-14.2,0-30.3,18.1-43.7,15
		c-13.8-3.2-20.5-26.8-33.1-33.1c-12.6-6.3-35.1,3.2-45.7-5.9c-11-9.1-7.1-33.5-15.8-44.5s-32.7-12.6-39-25.6
		c-5.9-12.6,7.9-33.1,4.7-47.3c-3.9-13.8-24.8-26-24.8-40.6s20.9-26.8,24-40.6c3.2-14.2-10.6-34.3-4.7-47.3
		c6.3-13,30.3-14.6,39-25.6s4.7-35.4,15.8-44.5s33.1,0.4,45.7-5.9c12.6-6.3,19.3-29.9,33.1-33.1c13.4-3.2,29.5,15,43.7,15
		c14.2,0,30.3-18.1,43.7-15c13.8,3.2,20.5,26.8,33.1,33.1c12.6,6.3,35.1-3.2,45.7,5.9c11,9.1,7.1,33.5,15.8,44.5s32.7,12.6,39,25.6
		c5.9,12.6-7.9,33.1-4.7,47.3C428.3,170.5,449.2,182.7,449.2,197.3z"/>
	<path class="st3" d="M252.2,118.5c-43.7,0-78.8,35.4-78.8,78.8s35.4,78.8,78.8,78.8c43.7,0,78.8-35.4,78.8-78.8
		S296,118.5,252.2,118.5z M252.2,232.7c-19.7,0-35.4-15.8-35.4-35.4s15.8-35.4,35.4-35.4s35.4,15.8,35.4,35.4
		S271.9,232.7,252.2,232.7z M252.2,55.5c-78.4,0-141.8,63.4-141.8,141.8s63.4,141.8,141.8,141.8S394,275.7,394,197.3
		S330.6,55.5,252.2,55.5z M252.2,315.4c-65.4,0-118.2-52.8-118.2-118.2S186.9,79.1,252.2,79.1s118.2,52.8,118.2,118.2
		S317.6,315.4,252.2,315.4z"/>
</g>
</svg>
