<?xml version="1.0" encoding="utf-8"?>
<!-- Generator: Adobe Illustrator 21.0.2, SVG Export Plug-In . SVG Version: 6.00 Build 0)  -->
<svg version="1.1" id="Layer_1" xmlns="http://www.w3.org/2000/svg" xmlns:xlink="http://www.w3.org/1999/xlink" x="0px" y="0px"
	 viewBox="0 0 503.9 503.9" style="enable-background:new 0 0 503.9 503.9;" xml:space="preserve">
<style type="text/css">
	.st0{fill:#EFC75E;}
	.st1{fill:#DEB957;}
	.st2{fill:#F26C4F;}
	.st3{fill:#F4F0D3;}
	.st4{fill:#E8E4C8;}
	.st5{fill:#8BA0AB;}
	.st6{fill:#324D5B;}
</style>
<g>
	<path class="st0" d="M156.8,355.2c22.1,22.1,22.1,58.3,0,80.3c-22.1,22.1-87,50.8-109.1,28.8s6.7-87,28.8-109.1
		C98.5,333.2,134.3,333.2,156.8,355.2z"/>
	<path class="st1" d="M91,344.6v2.4c0,41,33.5,74.4,74.4,74.4h1.6c11-21.3,7.5-48-10.6-66.2C139,337.5,112.3,333.9,91,344.6z"/>
	<path class="st2" d="M272.6,231.5c67.3,67.3,80.7,163.1,16.9,226.9l-30.3,30.3c-63.8,63.8-19.7-89.4-87-156.8s-220.9-22.8-156.8-87
		l30.3-30.3C109.5,150.8,205.2,164.2,272.6,231.5L272.6,231.5z"/>
	<path class="st3" d="M495.5,8.6c20.5,20.5,11.4,150.4-114.2,276.5c-81.9,81.5-133.5,110.3-133.5,110.3
		c-54.7,37-81.1,11.8-115.8-22.8s-60.3-61-22.8-115.8c0,0,29.1-52,110.7-133.9C345.4-2.8,475-12.2,495.5,8.6L495.5,8.6z"/>
	<path class="st4" d="M269.4,377.7c-57.1,38.2-84.7,12.2-120.5-23.6c-36.2-36.2-62.6-63.4-23.6-120.5l5.9-9.5
		c-15.4,20.9-22.1,32.7-22.1,32.7c-37.4,54.7-11.8,81.1,22.8,115.8s61,59.5,115.8,22.8c0,0,24.4-13.8,66.6-48.8
		C285.5,368.6,269.4,377.7,269.4,377.7z"/>
	<path class="st5" d="M363.5,140.6c19.3,19.3,19.3,50.4,0,69.7c-19.3,19.3-50.4,19.3-69.7,0c-19.3-19.3-19.3-50.4,0-69.7
		S344.6,121.3,363.5,140.6z"/>
	<path class="st2" d="M249.7,262.7c9.8,9.8-9.1,44.9-57.1,92.9s-77.2,61-87,50.8c-9.8-9.8,2.8-39,50.8-87
		C204.8,271.3,239.5,252.4,249.7,262.7z"/>
	<path class="st6" d="M328.9,137.8c9.8,0,19.3,3.9,26.4,11c7.1,7.1,11,16.5,11,26.4s-3.9,19.3-11,26.4c-7.1,7.1-16.5,11-26.4,11
		s-19.3-3.9-26.4-11c-7.1-7.1-11-16.5-11-26.4s3.9-19.3,11-26.4C309.6,141.7,319,137.8,328.9,137.8 M328.9,126
		c-12.6,0-25.2,4.7-34.7,14.6c-19.3,19.3-19.3,50.4,0,69.7c9.5,9.5,22.1,14.6,34.7,14.6s25.2-4.7,34.7-14.6
		c19.3-19.3,19.3-50.4,0-69.7C354.1,130.7,341.5,126,328.9,126z"/>
	<path class="st2" d="M375,18.5c3.5,26.4,17.7,54.4,41,77.6c20.5,20.1,44.1,33.5,67.3,39c26-64.6,24-114.2,12.2-126.4
		C484-3.2,436.8-5.2,375,18.5z"/>
</g>
</svg>
