<?xml version="1.0" encoding="utf-8"?>
<!-- Generator: Adobe Illustrator 21.0.2, SVG Export Plug-In . SVG Version: 6.00 Build 0)  -->
<svg version="1.1" id="Capa_1" xmlns="http://www.w3.org/2000/svg" xmlns:xlink="http://www.w3.org/1999/xlink" x="0px" y="0px"
	 viewBox="0 0 512 512" style="enable-background:new 0 0 512 512;" xml:space="preserve">
<g>
	<g>
		<g>
			<path d="M466.4,378.9l-74.2-74.2c-17.6-17.6-46-17.6-63.6,0l-21.2,21.2c-4.2,4.2-9.2,7.5-14.6,9.8c-15.9,6.6-35.5,3.8-49-9.8
				l-57.6-57.6c-17.6-17.6-17.6-46,0-63.6l21.2-21.2c17.6-17.6,17.6-46.1,0-63.6l-74.2-74.2C115.5,28,87,28,69.5,45.6L48.2,66.8
				c0,0,0,0,0,0c-64.3,64.3-64.3,169,0,233.3l163.7,163.7c64.4,64.3,169,64.3,233.3,0c0,0,0,0,0,0l21.2-21.2
				C484.1,424.9,483.9,396.4,466.4,378.9z M90.7,66.8c5.8-5.8,15.3-5.9,21.2,0l74.2,74.2c5.8,5.8,5.9,15.3,0,21.2l-10.6,10.6
				L80.1,77.4L90.7,66.8z M233.1,442.5L69.5,278.9c-49-49-52.4-126.7-10-179.7l95.9,95.9c-19.1,28.8-16.3,68.5,9.5,94.4l57.6,57.6
				c25.9,25.9,65.5,28.7,94.4,9.5l95.9,95.9C359.9,494.9,282.2,491.6,233.1,442.5z M445.2,421.3l-10.6,10.6l-95.4-95.4l10.6-10.6
				c5.9-5.9,15.4-5.8,21.2,0l74.2,74.2C451.1,406,451.1,415.5,445.2,421.3z"/>
		</g>
	</g>
	<g>
		<g>
			<path d="M257,0c-8.3,0-15,6.7-15,15s6.7,15,15,15c124,0,225,100.9,225,225c0,8.3,6.7,15,15,15s15-6.7,15-15C512,114,398,0,257,0z
				"/>
		</g>
	</g>
	<g>
		<g>
			<path d="M257,60c-8.3,0-15,6.7-15,15s6.7,15,15,15c91,0,165,74,165,165c0,8.3,6.7,15,15,15c8.3,0,15-6.7,15-15
				C452,147.4,364.6,60,257,60z"/>
		</g>
	</g>
	<g>
		<g>
			<path d="M257,120c-8.3,0-15,6.7-15,15s6.7,15,15,15c57.9,0,105,47.1,105,105c0,8.3,6.7,15,15,15s15-6.7,15-15
				C392,180.5,331.5,120,257,120z"/>
		</g>
	</g>
</g>
</svg>
